<?xml version="1.0" encoding="utf-8"?>
<!-- Generator: Adobe Illustrator 19.2.1, SVG Export Plug-In . SVG Version: 6.00 Build 0)  -->
<svg version="1.1" id="Слой_1" xmlns="http://www.w3.org/2000/svg" xmlns:xlink="http://www.w3.org/1999/xlink" x="0px" y="0px"
	 viewBox="0 0 512 239.5" style="enable-background:new 0 0 512 239.5;" xml:space="preserve">
<style type="text/css">
	.st0{fill:none;}
</style>
<g>
	<path d="M464,111.2h24c4.7,0,8.5,3.8,8.5,8.5s-3.8,8.5-8.5,8.5H144c-4.1,0-7.5,3.4-7.5,7.5s3.4,7.5,7.5,7.5h344
		c13,0,23.5-10.5,23.5-23.5S501,96.2,488,96.2h-24c-4.1,0-7.5,3.4-7.5,7.5S459.9,111.2,464,111.2z"/>
	<path d="M0.6,121.4c0.4,5.5,2.7,10.8,6.6,14.7c0.1,0.1,0.2,0.2,0.3,0.3l95.9,95.9c4.4,4.4,10.3,6.9,16.6,6.9s12.2-2.4,16.6-6.9
		c4.4-4.4,6.9-10.3,6.9-16.6s-2.4-12.2-6.9-16.6l-55.9-55.9H112c4.1,0,7.5-3.4,7.5-7.5s-3.4-7.5-7.5-7.5H62.6c-3,0-5.8,1.8-6.9,4.6
		c-1.2,2.8-0.5,6,1.6,8.2l68.7,68.7c1.6,1.6,2.5,3.7,2.5,6s-0.9,4.4-2.5,6s-3.7,2.5-6,2.5s-4.4-0.9-6-2.5l-96-96l0,0
		c-1.8-1.8-2.3-3.9-2.4-5.3v-0.1c0-0.6,0-1.1,0-1.7c0.2-1.7,0.9-3.2,2-4.5c0.1-0.2,0.3-0.3,0.5-0.5L114,17.7c1.6-1.6,3.7-2.5,6-2.5
		s4.4,0.9,6,2.5c3.3,3.3,3.3,8.7,0,12L57.3,98.4c-2.1,2.1-2.8,5.4-1.6,8.2c1.2,2.8,3.9,4.6,6.9,4.6H432c4.1,0,7.5-3.4,7.5-7.5
		s-3.4-7.5-7.5-7.5H80.7l55.9-55.9c9.2-9.2,9.2-24.1,0-33.2c-4.4-4.4-10.3-6.9-16.6-6.9s-12.2,2.4-16.6,6.9L7.5,103
		c-0.5,0.4-0.9,0.9-1.3,1.4c-3,3.5-4.9,7.7-5.5,12.3c-0.2,1.5-0.2,3-0.1,4.5C0.6,121.3,0.6,121.4,0.6,121.4z"/>
</g>
<rect class="st0" width="512" height="239.5"/>
</svg>
