<?xml version="1.0" encoding="utf-8"?>
<!-- Generator: Adobe Illustrator 19.2.1, SVG Export Plug-In . SVG Version: 6.00 Build 0)  -->
<svg version="1.1" id="Capa_1" xmlns="http://www.w3.org/2000/svg" xmlns:xlink="http://www.w3.org/1999/xlink" x="0px" y="0px"
	 viewBox="0 0 512 239.5" style="enable-background:new 0 0 512 239.5;" xml:space="preserve">
<style type="text/css">
	.st0{fill:none;}
</style>
<g>
	<path d="M511.9,118.1c-0.4-5.5-2.7-10.8-6.6-14.8c-0.1-0.1-0.2-0.2-0.3-0.3L408.9,6.9C404.5,2.5,398.6,0,392.3,0
		s-12.2,2.5-16.6,6.9s-6.9,10.4-6.9,16.6s2.4,12.2,6.9,16.6l56,56h-31.3c-4.2,0-7.5,3.4-7.5,7.5c0,4.2,3.4,7.5,7.5,7.5h49.5
		c3,0,5.8-1.8,6.9-4.6c1.2-2.8,0.5-6-1.6-8.2l-68.8-68.8c-1.6-1.6-2.5-3.7-2.5-6s0.9-4.4,2.5-6s3.7-2.5,6-2.5s4.4,0.9,6,2.5
		l96.2,96.2l0,0c1.8,1.8,2.3,3.9,2.5,5.3v0.1c0,0.6,0,1.1,0,1.7c-0.2,1.7-0.9,3.2-2,4.5c-0.1,0.2-0.3,0.3-0.5,0.5l-96.1,96.1
		c-1.6,1.6-3.7,2.5-6,2.5s-4.4-0.9-6-2.5s-2.5-3.7-2.5-6s0.9-4.4,2.5-6l68.8-68.8c2.1-2.1,2.8-5.4,1.6-8.2c-1.2-2.8-3.9-4.6-6.9-4.6
		H95.7c-4.2,0-7.5,3.4-7.5,7.5c0,4.2,3.4,7.5,7.5,7.5h335.9l-56,56c-4.4,4.4-6.9,10.4-6.9,16.6c0,6.3,2.4,12.2,6.9,16.6
		c4.4,4.5,10.4,6.9,16.7,6.9s12.2-2.5,16.6-6.9l96-96c0.5-0.4,0.9-0.9,1.3-1.4c3-3.5,4.9-7.8,5.5-12.4c0.2-1.5,0.2-3,0.1-4.6
		C511.9,118.2,511.9,118.1,511.9,118.1z"/>
	<path d="M63.6,128.3H23.5c-4.7,0-8.5-3.8-8.5-8.5s3.8-8.5,8.5-8.5h344.7c4.2,0,7.5-3.4,7.5-7.5c0-4.2-3.4-7.5-7.5-7.5H23.5
		c-13,0-23.5,10.6-23.5,23.5s10.6,23.5,23.5,23.5h40.1c4.2,0,7.5-3.4,7.5-7.5C71.1,131.6,67.8,128.3,63.6,128.3z"/>
</g>
<rect class="st0" width="512" height="239.5"/>
</svg>
